<svg xmlns="http://www.w3.org/2000/svg" xmlns:xlink="http://www.w3.org/1999/xlink" width="500" zoomAndPan="magnify" viewBox="0 0 375 374.999991" height="500" preserveAspectRatio="xMidYMid meet" version="1.0"><defs><clipPath id="dfbb88186c"><path d="M 37.5 73 L 337.5 73 L 337.5 302 L 37.5 302 Z M 37.5 73 " clip-rule="nonzero"/></clipPath></defs><rect x="-37.5" width="450" fill="#ffffff" y="-37.499999" height="449.999989" fill-opacity="1"/><rect x="-37.5" width="450" fill="#3fc060" y="-37.499999" height="449.999989" fill-opacity="1"/><g clip-path="url(#dfbb88186c)"><path fill="#000000" d="M 37.5 73.304688 L 37.5 135.769531 C 37.5 159.3125 54.144531 174.890625 76.042969 174.890625 C 78.535156 174.929688 81.007812 174.71875 83.460938 174.257812 C 85.910156 173.800781 88.289062 173.097656 90.597656 172.15625 C 92.90625 171.214844 95.101562 170.054688 97.175781 168.671875 C 99.25 167.289062 101.164062 165.710938 102.921875 163.941406 L 102.921875 173.222656 L 118.0625 173.222656 L 118.0625 73.304688 L 102.789062 73.304688 L 102.789062 134.980469 C 102.789062 150.78125 91.917969 161.476562 77.84375 161.503906 C 63.613281 161.476562 52.882812 151.078125 52.882812 134.980469 L 52.882812 73.304688 Z M 129.53125 73.304688 L 129.53125 173.222656 L 144.070312 173.222656 L 144.070312 164.078125 C 145.808594 165.8125 147.699219 167.367188 149.742188 168.730469 C 151.785156 170.09375 153.941406 171.246094 156.214844 172.1875 C 158.484375 173.125 160.828125 173.835938 163.238281 174.3125 C 165.648438 174.789062 168.082031 175.027344 170.539062 175.027344 C 191.964844 175.625 209.660156 158.421875 209.660156 136.988281 C 209.660156 115.558594 191.964844 98.351562 170.539062 98.953125 C 168.09375 98.953125 165.667969 99.191406 163.269531 99.667969 C 160.867188 100.148438 158.535156 100.855469 156.277344 101.796875 C 154.015625 102.734375 151.871094 103.886719 149.839844 105.253906 C 147.804688 106.617188 145.925781 108.167969 144.203125 109.902344 L 144.203125 73.304688 Z M 253.101562 99.007812 C 232.164062 98.914062 215.140625 115.871094 215.15625 136.8125 C 215.15625 158.519531 232.324219 174.78125 254.578125 174.78125 C 256.117188 174.8125 257.652344 174.75 259.1875 174.601562 C 260.71875 174.449219 262.238281 174.210938 263.742188 173.878906 C 265.246094 173.546875 266.722656 173.128906 268.179688 172.625 C 269.632812 172.121094 271.054688 171.53125 272.4375 170.855469 C 273.824219 170.183594 275.164062 169.429688 276.457031 168.597656 C 277.753906 167.765625 278.996094 166.863281 280.183594 165.882812 C 281.375 164.902344 282.5 163.859375 283.566406 162.746094 C 284.628906 161.632812 285.625 160.460938 286.550781 159.234375 L 275.933594 151.511719 C 274.722656 153.207031 273.328125 154.730469 271.746094 156.085938 C 270.164062 157.4375 268.445312 158.585938 266.582031 159.519531 C 264.722656 160.453125 262.777344 161.152344 260.746094 161.613281 C 258.714844 162.074219 256.660156 162.28125 254.578125 162.242188 C 242.375 162.398438 231.894531 153.597656 229.941406 141.550781 L 290.167969 141.550781 L 290.167969 136.8125 C 290.167969 115.140625 274.492188 99.015625 253.117188 99.007812 Z M 330.140625 99.839844 C 328.417969 99.828125 326.71875 100.03125 325.046875 100.457031 C 323.375 100.882812 321.785156 101.515625 320.277344 102.355469 C 318.769531 103.195312 317.394531 104.210938 316.152344 105.40625 C 314.910156 106.605469 313.839844 107.9375 312.941406 109.414062 L 312.941406 100.429688 L 298.40625 100.429688 L 298.40625 173.222656 L 313.082031 173.222656 L 313.082031 131.832031 C 313.082031 120.550781 320.058594 113.273438 329.667969 113.273438 L 335.851562 113.273438 L 335.851562 99.859375 C 333.882812 99.875 331.871094 99.847656 330.140625 99.839844 Z M 252.601562 111.640625 C 253.9375 111.625 255.265625 111.722656 256.585938 111.933594 C 257.90625 112.148438 259.199219 112.472656 260.460938 112.910156 C 261.726562 113.351562 262.941406 113.894531 264.109375 114.542969 C 265.277344 115.191406 266.382812 115.9375 267.421875 116.78125 C 268.460938 117.625 269.417969 118.546875 270.296875 119.558594 C 271.175781 120.566406 271.960938 121.644531 272.648438 122.789062 C 273.339844 123.933594 273.925781 125.128906 274.410156 126.378906 C 274.890625 127.625 275.261719 128.90625 275.519531 130.214844 L 230.300781 130.214844 C 230.554688 128.929688 230.917969 127.675781 231.382812 126.449219 C 231.851562 125.226562 232.421875 124.050781 233.09375 122.921875 C 233.761719 121.792969 234.519531 120.730469 235.371094 119.734375 C 236.222656 118.734375 237.152344 117.816406 238.160156 116.976562 C 239.167969 116.140625 240.238281 115.390625 241.375 114.734375 C 242.507812 114.078125 243.691406 113.523438 244.921875 113.070312 C 246.152344 112.613281 247.410156 112.265625 248.699219 112.027344 C 249.988281 111.789062 251.289062 111.660156 252.601562 111.640625 Z M 169.363281 111.710938 C 183.390625 111.605469 194.820312 122.953125 194.820312 136.980469 C 194.785156 150.984375 183.394531 162.300781 169.390625 162.242188 C 167.742188 162.226562 166.109375 162.054688 164.496094 161.71875 C 162.882812 161.386719 161.316406 160.898438 159.800781 160.253906 C 158.28125 159.613281 156.839844 158.828125 155.476562 157.90625 C 154.109375 156.980469 152.851562 155.929688 151.691406 154.757812 C 150.53125 153.589844 149.492188 152.316406 148.582031 150.945312 C 147.667969 149.570312 146.898438 148.125 146.273438 146.597656 C 145.644531 145.074219 145.171875 143.503906 144.851562 141.886719 C 144.53125 140.269531 144.375 138.636719 144.375 136.988281 C 144.371094 135.34375 144.53125 133.710938 144.847656 132.09375 C 145.164062 130.476562 145.636719 128.902344 146.261719 127.378906 C 146.886719 125.855469 147.65625 124.40625 148.566406 123.03125 C 149.476562 121.65625 150.511719 120.386719 151.671875 119.214844 C 152.828125 118.042969 154.089844 116.992188 155.453125 116.066406 C 156.816406 115.136719 158.257812 114.351562 159.773438 113.710938 C 161.292969 113.066406 162.855469 112.578125 164.472656 112.238281 C 166.085938 111.902344 167.714844 111.726562 169.363281 111.710938 Z M 37.5 199.828125 L 37.5 299.476562 L 109.027344 299.476562 L 109.027344 282.390625 L 56.824219 282.390625 L 56.824219 257.753906 L 107.632812 257.753906 L 107.632812 241.328125 L 56.824219 241.328125 L 56.824219 216.886719 L 109.027344 216.886719 L 109.027344 199.828125 Z M 219.511719 204.953125 L 219.511719 226.027344 L 205.109375 226.027344 L 205.109375 242.753906 L 219.542969 242.753906 L 219.542969 282.039062 C 219.542969 291.949219 226.683594 299.800781 239.546875 299.800781 L 260.078125 299.800781 L 260 283.074219 L 245.734375 283.074219 C 241.382812 283.074219 238.59375 281.1875 238.59375 277.273438 L 238.59375 242.671875 L 260 242.671875 L 260 226.027344 L 238.671875 226.027344 L 238.671875 204.953125 Z M 153.292969 224.046875 C 131.609375 223.917969 114.03125 241.589844 114.273438 263.273438 C 114.519531 284.953125 132.492188 302.226562 154.167969 301.609375 C 156.324219 301.628906 158.46875 301.464844 160.597656 301.117188 C 162.722656 300.769531 164.808594 300.242188 166.84375 299.53125 C 168.878906 298.824219 170.839844 297.945312 172.726562 296.894531 C 174.609375 295.847656 176.390625 294.644531 178.070312 293.289062 L 178.070312 299.9375 L 197.039062 299.9375 L 197.039062 226.027344 L 178.175781 226.027344 L 178.175781 232.597656 C 176.496094 231.21875 174.714844 229.996094 172.824219 228.925781 C 170.933594 227.855469 168.964844 226.957031 166.917969 226.230469 C 164.871094 225.5 162.777344 224.953125 160.636719 224.589844 C 158.496094 224.222656 156.339844 224.046875 154.167969 224.054688 C 153.863281 224.046875 153.554688 224.046875 153.292969 224.046875 Z M 300.429688 224.140625 C 280.609375 224.140625 266.675781 232.1875 266.675781 247.707031 C 266.675781 258.46875 274.34375 265.476562 290.878906 268.894531 L 308.976562 273.003906 C 316.09375 274.371094 318.003906 276.234375 318.003906 279.136719 C 318.003906 283.761719 312.53125 286.664062 303.90625 286.664062 C 292.957031 286.664062 286.6875 284.28125 284.253906 276.066406 L 265.089844 276.066406 C 267.828125 291.453125 279.542969 301.691406 303.195312 301.691406 L 303.222656 301.691406 C 325.121094 301.691406 337.5 291.453125 337.5 277.273438 C 337.5 267.203125 330.191406 259.671875 314.890625 256.441406 L 298.710938 253.183594 C 289.320312 251.484375 286.359375 249.761719 286.359375 246.367188 C 286.359375 241.902344 290.878906 239.171875 299.230469 239.171875 C 308.261719 239.171875 314.886719 241.578125 316.804688 249.761719 L 335.773438 249.761719 C 334.703125 234.402344 323.398438 224.140625 300.429688 224.140625 Z M 155.835938 239.769531 C 168.453125 239.890625 178.574219 250.230469 178.421875 262.84375 C 178.4375 275.402344 168.171875 285.546875 155.617188 285.375 C 143.023438 285.316406 132.863281 275.054688 132.921875 262.464844 C 132.984375 249.867188 143.242188 239.707031 155.835938 239.769531 Z M 155.835938 239.769531 " fill-opacity="1" fill-rule="nonzero"/></g></svg>